<svg width="16" height="16" viewBox="0 0 16 16" fill="none" xmlns="http://www.w3.org/2000/svg">
<rect opacity="0.01" x="16" y="16" width="16" height="16" transform="rotate(180 16 16)" fill="black"/>
<path fill-rule="evenodd" clip-rule="evenodd" d="M1.33334 7.99999C1.33334 4.3181 4.31811 1.33333 8.00001 1.33333C9.76812 1.33333 11.4638 2.03571 12.7141 3.28595C13.9643 4.53619 14.6667 6.23188 14.6667 7.99999C14.6667 11.6819 11.6819 14.6667 8.00001 14.6667C4.31811 14.6667 1.33334 11.6819 1.33334 7.99999ZM8.00001 8.66666H10.6667C11.0349 8.66666 11.3333 8.36818 11.3333 7.99999C11.3333 7.6318 11.0349 7.33333 10.6667 7.33333H8.66668V5.33333C8.66668 4.96514 8.3682 4.66666 8.00001 4.66666C7.63182 4.66666 7.33334 4.96514 7.33334 5.33333V7.99999C7.33334 8.36818 7.63182 8.66666 8.00001 8.66666Z" fill="#8BACD9"/>
</svg>
